#!OML:ASF Y:\EmotionMaleHayes\Project 1\Capture day 1\Session 1\Male1.ASF
:FULLY-SPECIFIED
:DEGREES
238
root -29.1703 17.0042 1.67333 6.18609 82.9162 10.6306
lowerback 7.53355 2.61982 -4.01187
upperback 6.77424 3.5244 0.104609
thorax 2.57198 1.71402 2.1684
lowerneck -24.4543 2.28066 4.27205
upperneck 23.8985 1.59224 0.393827
head 11.9515 1.21586 -0.275697
rclavicle -8.46077e-015 4.29872e-015
rhumerus -27.007 11.513 -92.9844
rradius 28.1755
rwrist 1.96281
rhand -10.0367 -33.0096
rfingers 7.12502
rthumb 15.9483 -62.373
lclavicle -8.46077e-015 4.29872e-015
lhumerus -22.8077 -17.529 91.9059
lradius 25.9761
lwrist -9.13889
lhand -14.5334 -25.4137
lfingers 7.12502
lthumb 11.6147 4.24441
rfemur 9.76608 -4.84595 11.5355
rtibia 7.36398
rfoot -17.5431 -3.81481
rtoes 6.18753
lfemur 10.991 2.49486 -10.5901
ltibia 7.19761
lfoot -14.9379 15.6998
ltoes -17.6301
239
root -29.1618 17.0051 1.70333 7.24724 82.8176 11.7625
lowerback 7.64285 2.74952 -4.13347
upperback 6.71905 3.68433 0.00942705
thorax 2.44321 1.79488 2.1204
lowerneck -24.3408 2.11255 3.97234
upperneck 23.9852 1.34435 0.869858
head 11.9528 1.14687 -0.0898936
rclavicle 3.93221e-015 -1.46107e-014
rhumerus -27.2209 11.6303 -93.1802
rradius 28.3233
rwrist 1.78633
rhand -10.2241 -33.5529
rfingers 7.12502
rthumb 15.7678 -62.9307
lclavicle 3.93221e-015 -1.46107e-014
lhumerus -22.9719 -17.5086 91.8101
lradius 26.2518
lwrist -8.6542
lhand -14.7787 -25.3136
lfingers 7.12502
lthumb 11.3782 4.35769
rfemur 9.92096 -4.96384 11.389
rtibia 7.28341
rfoot -17.4826 -3.59236
rtoes 5.86346
lfemur 11.0386 2.64519 -10.6476
ltibia 7.3363
lfoot -14.8814 15.6753
ltoes -18.1281
240
root -29.1525 16.9956 1.73221 9.21707 83.3526 13.516
lowerback 7.46209 2.64309 -4.16691
upperback 6.60369 3.54209 -0.0619303
thorax 2.43359 1.72286 2.0797
lowerneck -24.2806 2.04181 3.95464
upperneck 24.1603 1.23213 0.964666
head 12.0071 1.11356 -0.0694353
rclavicle 1.40392e-015 2.68359e-015
rhumerus -27.3361 11.6127 -93.2591
rradius 28.2146
rwrist 1.70075
rhand -10.3874 -33.2731
rfingers 7.12502
rthumb 15.6106 -62.6632
lclavicle 1.40392e-015 2.68359e-015
lhumerus -23.1175 -17.5205 91.8498
lradius 26.432
lwrist -8.34693
lhand -15.0944 -25.2882
lfingers 7.12502
lthumb 11.0737 4.39964
rfemur 10.0538 -5.21972 11.3434
rtibia 6.92031
rfoot -17.44 -3.84181
rtoes 6.13729
lfemur 10.3721 2.65716 -10.6143
ltibia 7.9976
lfoot -14.9726 15.1651
ltoes -18.6639
241
root -29.1474 16.9944 1.76311 7.66676 83.5651 11.8897
lowerback 7.40749 2.62145 -3.95036
upperback 6.60314 3.52411 0.0343492
thorax 2.46885 1.71842 2.06239
lowerneck -24.3036 1.95804 3.72456
upperneck 24.2257 1.16295 1.09706
head 12.0328 1.08084 0.00731101
rclavicle -1.92821e-014 6.80837e-015
rhumerus -27.2862 11.9455 -93.167
rradius 28.0882
rwrist 1.76792
rhand -10.387 -32.7202
rfingers 7.12502
rthumb 15.6109 -62.1103
lclavicle -1.92821e-014 6.80837e-015
lhumerus -23.0459 -17.0732 91.8898
lradius 26.4649
lwrist -8.42539
lhand -15.2544 -25.3846
lfingers 7.12502
lthumb 10.9194 4.31145
rfemur 10.1165 -5.38125 11.6914
rtibia 6.81369
rfoot -17.4579 -3.74248
rtoes 7.02261
lfemur 10.0721 2.60392 -10.2501
ltibia 8.42562
lfoot -15.0596 15.0733
ltoes -19.0861
242
root -29.1448 16.9948 1.79118 5.75833 83.7056 9.89117
lowerback 7.5546 2.67868 -3.69716
upperback 6.47837 3.59665 0.0844071
thorax 2.2618 1.76617 1.95696
lowerneck -24.4138 1.87478 3.87189
upperneck 24.481 1.03611 0.921714
head 12.1541 1.02033 -0.102169
rclavicle 2.22204e-014 -4.77083e-015
rhumerus -27.4008 12.0941 -93.1297
rradius 28.0491
rwrist 2.12924
rhand -10.1897 -32.7937
rfingers 7.12502
rthumb 15.8009 -62.1689
lclavicle 2.22204e-014 -4.77083e-015
lhumerus -23.2321 -17.119 91.9331
lradius 26.6861
lwrist -8.26504
lhand -16.5618 -25.0264
lfingers 7.12502
lthumb 9.65811 4.73218
rfemur 10.073 -5.65494 12.0031
rtibia 6.84792
rfoot -17.5641 -3.54424
rtoes 6.99126
lfemur 9.7129 2.7731 -9.81021
ltibia 8.96221
lfoot -15.032 14.9652
ltoes -19.6036
